<svg width="200" height="200" viewBox="0 0 200 200" xmlns="http://www.w3.org/2000/svg">
  <defs>
    <linearGradient id="grad1" x1="0%" y1="0%" x2="100%" y2="100%">
      <stop offset="0%" style="stop-color:#ff7e5f;stop-opacity:1" />
      <stop offset="100%" style="stop-color:#feb47b;stop-opacity:1" />
    </linearGradient>
    <filter id="shadow" x="-50%" y="-50%" width="200%" height="200%">
      <feDropShadow dx="3" dy="3" stdDeviation="4" flood-color="#000000" flood-opacity="0.3"/>
    </filter>
    <filter id="glow" x="-50%" y="-50%" width="200%" height="200%">
      <feGaussianBlur in="SourceGraphic" stdDeviation="3" result="blur" />
      <feFlood flood-color="white" flood-opacity="0.7" result="flood" />
      <feComposite in="flood" in2="blur" operator="in" result="glow" />
      <feMerge>
        <feMergeNode in="glow" />
        <feMergeNode in="SourceGraphic" />
      </feMerge>
    </filter>
  </defs>
  <rect x="0" y="0" width="200" height="200" fill="#f0f0f0" rx="20" ry="20"/>
  <text x="50%" y="50%" dominant-baseline="middle" text-anchor="middle" font-family="Arial, sans-serif" font-size="120" font-weight="bold" fill="url(#grad1)" filter="url(#shadow)">19</text>

  <path d="M100 20 L110 40 L130 40 L115 55 L120 75 L100 60 L80 75 L85 55 L70 40 L90 40 Z" fill="#ffd700" transform="translate(0, -10) scale(0.7) translate(10,10)" filter="url(#shadow)"/>
  <path d="M100 180 L110 160 L130 160 L115 145 L120 125 L100 140 L80 125 L85 145 L70 160 L90 160 Z" fill="#ffd700" transform="translate(0, 10) scale(0.7) translate(10,-10)" filter="url(#shadow)"/>
  <path d="M100 100 L105 110 L115 110 L108 118 L110 128 L100 120 L90 128 L92 118 L85 110 L95 110 Z" fill="#ffd700" transform="translate(-40,-40) scale(0.5)" filter="url(#shadow)"/>
  <path d="M100 100 L105 110 L115 110 L108 118 L110 128 L100 120 L90 128 L92 118 L85 110 L95 110 Z" fill="#ffd700" transform="translate(40,40) scale(0.5)" filter="url(#shadow)"/>

  <circle cx="50" cy="50" r="10" fill="#fff" opacity="0.8"/>
  <circle cx="150" cy="150" r="10" fill="#fff" opacity="0.8"/>
  <circle cx="20" cy="120" r="8" fill="#fff" opacity="0.7"/>
  <circle cx="180" cy="80" r="8" fill="#fff" opacity="0.7"/>
  <circle cx="100" cy="30" r="7" fill="#fff" opacity="0.6"/>
  <circle cx="100" cy="170" r="7" fill="#fff" opacity="0.6"/>

  <g filter="url(#glow)">
    <line x1="15" y1="15" x2="35" y2="35" stroke="white" stroke-width="2" opacity="0.6"/>
    <line x1="35" y1="15" x2="15" y2="35" stroke="white" stroke-width="2" opacity="0.6"/>
    <line x1="165" y1="165" x2="185" y2="185" stroke="white" stroke-width="2" opacity="0.6"/>
    <line x1="185" y1="165" x2="165" y2="185" stroke="white" stroke-width="2" opacity="0.6"/>
    <rect x="95" y="60" width="10" height="2" fill="white" opacity="0.7" transform="rotate(45 100 61)"/>
    <rect x="95" y="60" width="10" height="2" fill="white" opacity="0.7" transform="rotate(-45 100 61)"/>
    <rect x="95" y="138" width="10" height="2" fill="white" opacity="0.7" transform="rotate(45 100 139)"/>
    <rect x="95" y="138" width="10" height="2" fill="white" opacity="0.7" transform="rotate(-45 100 139)"/>
  </g>
</svg>